<svg width="500" height="250" viewBox="0 0 500 250" fill="none" xmlns="http://www.w3.org/2000/svg">
<path d="M360.442 235.682H55.866V236.55H360.442V235.682Z" fill="#3F3D56"/>
<path d="M217.389 116.276C217.389 116.276 210.925 135.794 223.852 132.324C236.78 128.854 229.023 115.408 229.023 115.408L217.389 116.276Z" fill="#FFB9B9"/>
<path d="M338.263 122.782C338.263 122.782 353.776 135.361 344.08 137.963C334.385 140.566 329.213 126.252 330.506 124.951C331.799 123.649 338.263 122.782 338.263 122.782Z" fill="#FFB9B9"/>
<path d="M301.419 33.8627C312.129 33.8627 320.81 28.0368 320.81 20.8501C320.81 13.6635 312.129 7.83759 301.419 7.83759C290.709 7.83759 282.027 13.6635 282.027 20.8501C282.027 28.0368 290.709 33.8627 301.419 33.8627Z" fill="#FFB9B9"/>
<path d="M286.875 25.8384L284.29 39.2846L305.62 44.4895L310.145 29.3082L286.875 25.8384Z" fill="#FFB9B9"/>
<path d="M298.833 39.0677C298.833 39.0677 287.875 35.4376 285.598 32.4814L280.734 35.5977C280.734 35.5977 245.83 33.4289 240.658 45.1402C235.487 56.8515 240.012 99.3592 240.012 99.3592C240.012 99.3592 232.902 118.444 234.841 118.878C236.78 119.312 260.696 127.119 294.309 122.782C294.309 122.782 309.175 121.047 311.761 122.348C314.347 123.649 310.468 101.528 310.468 101.528C310.468 101.528 336.324 62.4903 331.799 57.719C327.274 52.9477 307.236 42.9714 307.236 42.9714L308.529 38.2002C308.529 38.2002 299.48 40.8027 298.833 39.0677Z" fill="#CFCCE0"/>
<path d="M245.829 42.1039C245.829 42.1039 234.195 46.0077 232.255 52.0802C230.316 58.1528 212.217 108.468 214.156 111.504C216.096 114.54 215.449 118.444 215.449 118.444L232.255 117.143C232.255 117.143 229.023 114.107 230.963 112.805C232.902 111.504 234.841 107.167 233.548 105.432C232.255 103.697 230.963 106.733 238.073 101.094C245.183 95.4554 261.343 43.839 245.829 42.1039Z" fill="#CFCCE0"/>
<path d="M327.921 56.8515C327.921 56.8515 333.415 57.0684 334.708 63.1409C336.001 69.2134 338.263 106.733 338.263 106.733C338.263 106.733 346.666 118.878 343.434 120.613C340.202 122.348 342.141 124.951 342.141 124.951L330.506 127.119L305.297 100.66L327.921 56.8515Z" fill="#CFCCE0"/>
<path d="M236.78 117.143C236.78 117.143 232.902 117.577 232.902 127.119C232.902 136.662 225.792 166.157 230.316 170.928C234.841 175.699 235.487 218.641 235.487 218.641C235.487 218.641 247.769 222.111 258.111 210.833L259.404 204.761L261.989 175.266L272.331 138.397L286.552 179.17C286.552 179.17 284.613 228.183 291.723 228.183C298.833 228.183 312.407 224.28 312.407 224.28C312.407 224.28 315.639 219.942 314.347 217.773C313.054 215.605 311.761 216.038 313.054 214.303C314.347 212.568 316.286 167.458 316.286 167.458C316.286 167.458 313.7 121.047 310.468 119.746C307.236 118.444 236.78 117.143 236.78 117.143Z" fill="#2F2E41"/>
<path d="M236.78 216.906L226.438 224.28C226.438 224.28 207.693 235.991 223.852 236.425C240.012 236.858 249.062 229.485 249.062 228.617C249.062 227.75 249.708 224.713 254.233 224.713C258.757 224.713 269.746 217.34 267.16 214.303C264.575 211.267 256.818 209.966 256.818 209.966L236.78 216.906Z" fill="#2F2E41"/>
<path d="M292.369 226.448C292.369 226.448 284.613 236.858 289.137 239.027C293.662 241.196 294.955 242.064 294.955 242.064C294.955 242.064 298.833 241.63 298.187 245.534C297.54 249.437 321.457 251.606 322.75 248.57C324.042 245.534 323.396 239.461 320.81 237.726C318.225 235.991 310.468 223.846 310.468 223.846C310.468 223.846 302.065 217.34 292.369 226.448Z" fill="#2F2E41"/>
<path d="M320.99 10.4014L324.643 10.0532C324.643 10.0532 319.557 3.77228 309.715 2.63179L313.17 1.06698C313.17 1.06698 307.166 -1.81217 299.407 1.88861C295.328 3.83403 290.592 6.13039 287.109 9.02078L283.545 8.43639L284.232 10.8778L278.227 12.2216L283.713 12.7031C282.956 13.8543 282.46 15.0748 282.241 16.3243C282.028 17.5753 282.548 18.8328 283.691 19.8315C283.691 19.8315 289.905 14.7764 290.23 13.8825L289.416 16.1173C289.416 16.1173 293.476 14.6517 293.965 13.3109L295.21 15.1728L297.013 12.8634L307.31 17.1571L306.227 14.8482L312.94 16.6596L311.113 13.7549C311.113 13.7549 317.92 17.9499 317.327 20.4577C316.734 22.9655 318.188 25.6724 318.188 25.6724C318.188 25.6724 328.541 15.1921 320.99 10.4014Z" fill="#2F2E41"/>
<path d="M500 157.833H396.486V158.664H500V157.833Z" fill="#3F3D56"/>
<path d="M113.074 221.877H88.1218V238.621H113.074V221.877Z" fill="#CFCCE0"/>
<path d="M109.79 236.418H83.5254V218.793H109.79V236.418ZM84.8387 235.537H108.477V219.674H84.8386L84.8387 235.537Z" fill="#3F3D56"/>
<path d="M140.373 75.5757L124.582 79.6739L130.478 89.9032L146.268 85.8051L140.373 75.5757Z" fill="#F2F2F2"/>
<path d="M143.415 84.9984L126.793 89.3122L120.587 78.5445L137.209 74.2307L143.415 84.9984ZM127.314 88.5581L142.273 84.6757L136.688 74.9847L121.728 78.8672L127.314 88.5581Z" fill="#3F3D56"/>
<path d="M430.53 200.279L425.026 189.535L409.569 193.101L415.074 203.845L430.53 200.279Z" fill="#F2F2F2"/>
<path d="M416.383 201.962L410.589 190.653L426.859 186.899L432.653 198.209L416.383 201.962ZM411.692 191.031L416.907 201.209L431.55 197.831L426.335 187.652L411.692 191.031Z" fill="#3F3D56"/>
<path d="M78.5066 146.871C87.7646 147.004 95.1292 151.506 95.1292 151.506C95.1292 151.506 87.4836 155.792 78.2256 155.659C68.9677 155.525 61.603 151.023 61.603 151.023C61.603 151.023 69.2486 146.737 78.5066 146.871Z" fill="#6C63FF"/>
<path d="M31.9621 125.664C40.3263 128.331 49.9173 126.522 49.9173 126.522C49.9173 126.522 45.9474 120.391 37.5832 117.725C29.219 115.058 19.6279 116.866 19.6279 116.866C19.6279 116.866 23.5979 122.998 31.9621 125.664Z" fill="#6C63FF"/>
<path d="M32.8124 123.014C42.0341 122.449 50.1058 126.367 50.1058 126.367C50.1058 126.367 43.2263 131.202 34.0046 131.768C24.7829 132.333 16.7112 128.415 16.7112 128.415C16.7112 128.415 23.5908 123.58 32.8124 123.014Z" fill="#3F3D56"/>
<path d="M66.6163 124.086C65.7324 130.271 71.5355 135.705 71.5355 135.705C71.5355 135.705 78.7717 131.11 79.6556 124.925C80.5395 118.739 74.7364 113.305 74.7364 113.305C74.7364 113.305 67.5002 117.9 66.6163 124.086Z" fill="#3F3D56"/>
<path d="M110.046 162.021C105.209 167.32 106.873 173.912 106.873 173.912C106.873 173.912 116.379 171.912 121.216 166.613C126.053 161.314 124.389 154.723 124.389 154.723C124.389 154.723 114.883 156.723 110.046 162.021Z" fill="#3F3D56"/>
<path d="M96.0136 219.634L96.7185 219.314C94.2339 216.895 92.8773 214.034 92.821 211.096C92.8407 206.798 95.9866 202.823 99.029 198.979C99.5937 198.265 100.157 197.554 100.698 196.843C102.971 193.945 104.782 190.893 106.102 187.74C110.821 175.972 106.175 162.088 93.6733 150.6C83.7562 141.487 68.9728 133.518 48.4787 126.238L48.0808 126.742C68.4581 133.981 83.1469 141.895 92.9863 150.937C105.337 162.286 109.933 175.989 105.28 187.592C103.976 190.707 102.186 193.72 99.9408 196.583C99.401 197.291 98.8402 198 98.2776 198.711C95.1868 202.617 91.9907 206.655 91.9703 211.094C92.0265 214.147 93.4339 217.119 96.0136 219.634V219.634Z" fill="#3F3D56"/>
<path d="M8.0818 126.988C12.5451 126.988 16.1634 124.56 16.1634 121.565C16.1634 118.57 12.5451 116.142 8.0818 116.142C3.61848 116.142 0.000244141 118.57 0.000244141 121.565C0.000244141 124.56 3.61848 126.988 8.0818 126.988Z" fill="#3F3D56"/>
<path d="M448.037 153.598L344.011 128.526L362.582 93.8274L427.354 83.1681L466.609 118.899L448.037 153.598Z" fill="#2F2E41"/>
<path d="M435.435 146.717L357.696 126.832C377.877 108.692 386.902 95.8962 386.908 75.761L464.647 95.6464C446.587 112.862 439.034 125.803 435.435 146.717Z" fill="#F2F2F2"/>
<path d="M441.553 98.3675L401.279 88.0655L400.565 89.3225L440.839 99.6246L441.553 98.3675Z" fill="#3F3D56"/>
<path d="M438.697 103.396L398.423 93.0935L397.709 94.3505L437.983 104.653L438.697 103.396Z" fill="#3F3D56"/>
<path d="M435.841 108.424L395.567 98.1215L394.852 99.3785L435.127 109.681L435.841 108.424Z" fill="#3F3D56"/>
<path d="M432.985 113.452L392.71 103.15L391.996 104.407L432.271 114.709L432.985 113.452Z" fill="#3F3D56"/>
<path d="M430.128 118.48L389.854 108.178L389.14 109.435L429.414 119.737L430.128 118.48Z" fill="#3F3D56"/>
<path d="M427.272 123.508L386.998 113.206L386.284 114.463L426.558 124.765L427.272 123.508Z" fill="#3F3D56"/>
<path d="M424.416 128.536L384.142 118.234L383.428 119.491L423.702 129.793L424.416 128.536Z" fill="#3F3D56"/>
<path d="M421.56 133.564L381.285 123.262L380.571 124.519L420.846 134.821L421.56 133.564Z" fill="#3F3D56"/>
<path d="M445.633 158.088L341.607 133.017L362.582 93.8273L406.512 121.467L466.609 118.899L445.633 158.088Z" fill="#3F3D56"/>
<path d="M392.777 145.74L340.907 133.238L353.545 109.624L354.577 109.872L342.308 132.795L393.147 145.048L392.777 145.74Z" fill="#6C63FF"/>
<path d="M374.339 120.626L359.13 116.961L356.946 121.043L372.154 124.708L374.339 120.626Z" fill="#6C63FF"/>
<path d="M202.384 235.991L120.966 235.962L121.605 205.29L162.068 217.494L203.023 206.054L202.384 235.991Z" fill="#3F3D56"/>
<path d="M139.352 222.074L127.449 221.962L127.382 225.157L139.285 225.269L139.352 222.074Z" fill="#6C63FF"/>
<path d="M203.295 206.012L162.142 220.091L121.391 206.012V205.2H203.295V206.012Z" fill="#6C63FF"/>
<path d="M439.878 89.9197C440.851 88.2071 435.912 85.3535 428.846 83.546C421.779 81.7385 415.263 81.6616 414.29 83.3742C413.317 85.0868 418.256 87.9404 425.322 89.7479C432.389 91.5554 438.905 91.6323 439.878 89.9197Z" fill="#6C63FF"/>
<path d="M451.06 37.6906C448.451 37.1461 445.706 36.9518 442.985 37.1189C440.263 37.286 437.617 37.8112 435.198 38.6645C432.778 39.5178 430.633 40.6825 428.885 42.0921C427.136 43.5017 425.819 45.1286 425.007 46.8799C421.594 54.2452 430.895 81.2083 430.895 81.2083C430.895 81.2083 461.342 62.5388 464.754 55.1735C466.393 51.6365 465.871 47.8076 463.303 44.5289C460.735 41.2502 456.331 38.7904 451.06 37.6906V37.6906ZM441.954 57.3438C440.092 56.9553 438.443 56.205 437.217 55.1879C435.99 54.1707 435.241 52.9324 435.063 51.6294C434.886 50.3264 435.288 49.0174 436.219 47.8678C437.15 46.7182 438.568 45.7797 440.294 45.1709C442.02 44.5621 443.976 44.3105 445.915 44.4478C447.854 44.5851 449.689 45.1051 451.188 45.9422C452.686 46.7792 453.781 47.8957 454.334 49.1503C454.887 50.405 454.874 51.7416 454.295 52.991C453.91 53.8205 453.286 54.5912 452.458 55.2589C451.63 55.9266 450.614 56.4783 449.468 56.8825C448.322 57.2867 447.068 57.5355 445.779 57.6146C444.49 57.6938 443.19 57.6017 441.954 57.3438V57.3438Z" fill="#6C63FF"/>
</svg>
